<?xml version="1.0" encoding="UTF-8" standalone="no"?>
<!DOCTYPE svg PUBLIC "-//W3C//DTD SVG 1.1//EN"
 "http://www.w3.org/Graphics/SVG/1.1/DTD/svg11.dtd">
<!-- Generated by graphviz version 2.40.1 (20161225.0304)
 -->
<!-- Title: Database Structure Pages: 1 -->
<svg width="1341pt" height="963pt"
 viewBox="0.00 0.00 1340.86 963.00" xmlns="http://www.w3.org/2000/svg" xmlns:xlink="http://www.w3.org/1999/xlink">
<g id="graph0" class="graph" transform="scale(1 1) rotate(0) translate(4 959)">
<title>Database Structure</title>
<polygon fill="#ffffff" stroke="transparent" points="-4,4 -4,-959 1336.8571,-959 1336.8571,4 -4,4"/>
<text text-anchor="middle" x="666.4286" y="-939.8" font-family="Helvetica,sans-Serif" font-size="14.00" fill="#000000">ER Diagram: db309ppb4</text>
<!-- GroceryListItems -->
<g id="node1" class="node">
<title>GroceryListItems</title>
<polygon fill="#dddddd" stroke="transparent" points="94.8571,-407 94.8571,-427 212.8571,-427 212.8571,-407 94.8571,-407"/>
<polygon fill="none" stroke="#000000" points="94.8571,-407 94.8571,-427 212.8571,-427 212.8571,-407 94.8571,-407"/>
<text text-anchor="start" x="104.4846" y="-412.8" font-family="Times,serif" font-size="14.00" fill="#000000">GroceryListItems</text>
<polygon fill="none" stroke="#000000" points="94.8571,-387 94.8571,-407 212.8571,-407 212.8571,-387 94.8571,-387"/>
<text text-anchor="start" x="138.4133" y="-393.8" font-family="Times,serif" font-size="14.00" fill="#000000">id:</text>
<text text-anchor="start" x="153.1926" y="-393.8" font-family="Helvetica,sans-Serif" font-style="oblique" font-size="10.00" fill="#000000">INT</text>
<polygon fill="none" stroke="#000000" points="94.8571,-367 94.8571,-387 212.8571,-387 212.8571,-367 94.8571,-367"/>
<text text-anchor="start" x="105.7614" y="-373.8" font-family="Times,serif" font-size="14.00" fill="#000000">groceryListId:</text>
<text text-anchor="start" x="185.8444" y="-373.8" font-family="Helvetica,sans-Serif" font-style="oblique" font-size="10.00" fill="#000000">INT</text>
<polygon fill="none" stroke="#000000" points="94.8571,-347 94.8571,-367 212.8571,-367 212.8571,-347 94.8571,-347"/>
<text text-anchor="start" x="109.6477" y="-353.8" font-family="Times,serif" font-size="14.00" fill="#000000">ingredientId:</text>
<text text-anchor="start" x="181.9582" y="-353.8" font-family="Helvetica,sans-Serif" font-style="oblique" font-size="10.00" fill="#000000">INT</text>
<polygon fill="none" stroke="#000000" points="94.8571,-327 94.8571,-347 212.8571,-347 212.8571,-327 94.8571,-327"/>
<text text-anchor="start" x="99.799" y="-333.8" font-family="Times,serif" font-size="14.00" fill="#000000">createdAt:</text>
<text text-anchor="start" x="158.0959" y="-333.8" font-family="Helvetica,sans-Serif" font-style="oblique" font-size="10.00" fill="#000000">DATETIME</text>
<polygon fill="none" stroke="#000000" points="94.8571,-307 94.8571,-327 212.8571,-327 212.8571,-307 94.8571,-307"/>
<text text-anchor="start" x="97.844" y="-313.8" font-family="Times,serif" font-size="14.00" fill="#000000">updatedAt:</text>
<text text-anchor="start" x="160.051" y="-313.8" font-family="Helvetica,sans-Serif" font-style="oblique" font-size="10.00" fill="#000000">DATETIME</text>
</g>
<!-- GroceryLists -->
<g id="node2" class="node">
<title>GroceryLists</title>
<polygon fill="#dddddd" stroke="transparent" points="607.8571,-596 607.8571,-616 725.8571,-616 725.8571,-596 607.8571,-596"/>
<polygon fill="none" stroke="#000000" points="607.8571,-596 607.8571,-616 725.8571,-616 725.8571,-596 607.8571,-596"/>
<text text-anchor="start" x="630.3122" y="-601.8" font-family="Times,serif" font-size="14.00" fill="#000000">GroceryLists</text>
<polygon fill="none" stroke="#000000" points="607.8571,-576 607.8571,-596 725.8571,-596 725.8571,-576 607.8571,-576"/>
<text text-anchor="start" x="651.4133" y="-582.8" font-family="Times,serif" font-size="14.00" fill="#000000">id:</text>
<text text-anchor="start" x="666.1926" y="-582.8" font-family="Helvetica,sans-Serif" font-style="oblique" font-size="10.00" fill="#000000">INT</text>
<polygon fill="none" stroke="#000000" points="607.8571,-556 607.8571,-576 725.8571,-576 725.8571,-556 607.8571,-556"/>
<text text-anchor="start" x="629.9465" y="-562.8" font-family="Times,serif" font-size="14.00" fill="#000000">title:</text>
<text text-anchor="start" x="655.6086" y="-562.8" font-family="Helvetica,sans-Serif" font-style="oblique" font-size="10.00" fill="#000000">VARCHAR</text>
<polygon fill="none" stroke="#000000" points="607.8571,-536 607.8571,-556 725.8571,-556 725.8571,-536 607.8571,-536"/>
<text text-anchor="start" x="628.344" y="-542.8" font-family="Times,serif" font-size="14.00" fill="#000000">date:</text>
<text text-anchor="start" x="655.551" y="-542.8" font-family="Helvetica,sans-Serif" font-style="oblique" font-size="10.00" fill="#000000">DATETIME</text>
<polygon fill="none" stroke="#000000" points="607.8571,-516 607.8571,-536 725.8571,-536 725.8571,-516 607.8571,-516"/>
<text text-anchor="start" x="636.2512" y="-522.8" font-family="Times,serif" font-size="14.00" fill="#000000">user_id:</text>
<text text-anchor="start" x="681.3547" y="-522.8" font-family="Helvetica,sans-Serif" font-style="oblique" font-size="10.00" fill="#000000">INT</text>
<polygon fill="none" stroke="#000000" points="607.8571,-496 607.8571,-516 725.8571,-516 725.8571,-496 607.8571,-496"/>
<text text-anchor="start" x="612.799" y="-502.8" font-family="Times,serif" font-size="14.00" fill="#000000">createdAt:</text>
<text text-anchor="start" x="671.0959" y="-502.8" font-family="Helvetica,sans-Serif" font-style="oblique" font-size="10.00" fill="#000000">DATETIME</text>
<polygon fill="none" stroke="#000000" points="607.8571,-476 607.8571,-496 725.8571,-496 725.8571,-476 607.8571,-476"/>
<text text-anchor="start" x="610.844" y="-482.8" font-family="Times,serif" font-size="14.00" fill="#000000">updatedAt:</text>
<text text-anchor="start" x="673.051" y="-482.8" font-family="Helvetica,sans-Serif" font-style="oblique" font-size="10.00" fill="#000000">DATETIME</text>
</g>
<!-- GroceryListItems&#45;&gt;GroceryLists -->
<g id="edge1" class="edge">
<title>GroceryListItems:groceryListId&#45;&gt;GroceryLists:id</title>
<path fill="none" stroke="#444444" stroke-dasharray="5,2" d="M212.8571,-377C408.0783,-377 409.2593,-578.9175 597.8482,-585.819"/>
<polygon fill="#444444" stroke="#444444" points="607.7938,-589.4994 597.8588,-585.8191 607.9205,-582.5006 607.7938,-589.4994"/>
</g>
<!-- Ingredients -->
<g id="node3" class="node">
<title>Ingredients</title>
<polygon fill="#dddddd" stroke="transparent" points="607.8571,-264 607.8571,-284 725.8571,-284 725.8571,-264 607.8571,-264"/>
<polygon fill="none" stroke="#000000" points="607.8571,-264 607.8571,-284 725.8571,-284 725.8571,-264 607.8571,-264"/>
<text text-anchor="start" x="635.3674" y="-269.8" font-family="Times,serif" font-size="14.00" fill="#000000">Ingredients</text>
<polygon fill="none" stroke="#000000" points="607.8571,-244 607.8571,-264 725.8571,-264 725.8571,-244 607.8571,-244"/>
<text text-anchor="start" x="651.4133" y="-250.8" font-family="Times,serif" font-size="14.00" fill="#000000">id:</text>
<text text-anchor="start" x="666.1926" y="-250.8" font-family="Helvetica,sans-Serif" font-style="oblique" font-size="10.00" fill="#000000">INT</text>
<polygon fill="none" stroke="#000000" points="607.8571,-224 607.8571,-244 725.8571,-244 725.8571,-224 607.8571,-224"/>
<text text-anchor="start" x="625.674" y="-230.8" font-family="Times,serif" font-size="14.00" fill="#000000">name:</text>
<text text-anchor="start" x="659.8811" y="-230.8" font-family="Helvetica,sans-Serif" font-style="oblique" font-size="10.00" fill="#000000">VARCHAR</text>
<polygon fill="none" stroke="#000000" points="607.8571,-204 607.8571,-224 725.8571,-224 725.8571,-204 607.8571,-204"/>
<text text-anchor="start" x="635.0925" y="-210.8" font-family="Times,serif" font-size="14.00" fill="#000000">calories:</text>
<text text-anchor="start" x="682.5134" y="-210.8" font-family="Helvetica,sans-Serif" font-style="oblique" font-size="10.00" fill="#000000">INT</text>
<polygon fill="none" stroke="#000000" points="607.8571,-184 607.8571,-204 725.8571,-204 725.8571,-184 607.8571,-184"/>
<text text-anchor="start" x="649.4753" y="-190.8" font-family="Times,serif" font-size="14.00" fill="#000000">fat:</text>
<text text-anchor="start" x="668.1306" y="-190.8" font-family="Helvetica,sans-Serif" font-style="oblique" font-size="10.00" fill="#000000">INT</text>
<polygon fill="none" stroke="#000000" points="607.8571,-164 607.8571,-184 725.8571,-184 725.8571,-164 607.8571,-164"/>
<text text-anchor="start" x="641.696" y="-170.8" font-family="Times,serif" font-size="14.00" fill="#000000">sugar:</text>
<text text-anchor="start" x="675.9099" y="-170.8" font-family="Helvetica,sans-Serif" font-style="oblique" font-size="10.00" fill="#000000">INT</text>
<polygon fill="none" stroke="#000000" points="607.8571,-144 607.8571,-164 725.8571,-164 725.8571,-144 607.8571,-144"/>
<text text-anchor="start" x="636.2443" y="-150.8" font-family="Times,serif" font-size="14.00" fill="#000000">sodium:</text>
<text text-anchor="start" x="681.3615" y="-150.8" font-family="Helvetica,sans-Serif" font-style="oblique" font-size="10.00" fill="#000000">INT</text>
<polygon fill="none" stroke="#000000" points="607.8571,-124 607.8571,-144 725.8571,-144 725.8571,-124 607.8571,-124"/>
<text text-anchor="start" x="637.0305" y="-130.8" font-family="Times,serif" font-size="14.00" fill="#000000">protein:</text>
<text text-anchor="start" x="680.5754" y="-130.8" font-family="Helvetica,sans-Serif" font-style="oblique" font-size="10.00" fill="#000000">INT</text>
<polygon fill="none" stroke="#000000" points="607.8571,-104 607.8571,-124 725.8571,-124 725.8571,-104 607.8571,-104"/>
<text text-anchor="start" x="642.0891" y="-110.8" font-family="Times,serif" font-size="14.00" fill="#000000">carbs:</text>
<text text-anchor="start" x="675.5168" y="-110.8" font-family="Helvetica,sans-Serif" font-style="oblique" font-size="10.00" fill="#000000">INT</text>
<polygon fill="none" stroke="#000000" points="607.8571,-84 607.8571,-104 725.8571,-104 725.8571,-84 607.8571,-84"/>
<text text-anchor="start" x="626.1477" y="-90.8" font-family="Times,serif" font-size="14.00" fill="#000000">cholesterol:</text>
<text text-anchor="start" x="691.4582" y="-90.8" font-family="Helvetica,sans-Serif" font-style="oblique" font-size="10.00" fill="#000000">INT</text>
<polygon fill="none" stroke="#000000" points="607.8571,-64 607.8571,-84 725.8571,-84 725.8571,-64 607.8571,-64"/>
<text text-anchor="start" x="634.7028" y="-70.8" font-family="Times,serif" font-size="14.00" fill="#000000">calcium:</text>
<text text-anchor="start" x="682.903" y="-70.8" font-family="Helvetica,sans-Serif" font-style="oblique" font-size="10.00" fill="#000000">INT</text>
<polygon fill="none" stroke="#000000" points="607.8571,-44 607.8571,-64 725.8571,-64 725.8571,-44 607.8571,-44"/>
<text text-anchor="start" x="645.5822" y="-50.8" font-family="Times,serif" font-size="14.00" fill="#000000">iron:</text>
<text text-anchor="start" x="672.0236" y="-50.8" font-family="Helvetica,sans-Serif" font-style="oblique" font-size="10.00" fill="#000000">INT</text>
<polygon fill="none" stroke="#000000" points="607.8571,-24 607.8571,-44 725.8571,-44 725.8571,-24 607.8571,-24"/>
<text text-anchor="start" x="612.799" y="-30.8" font-family="Times,serif" font-size="14.00" fill="#000000">createdAt:</text>
<text text-anchor="start" x="671.0959" y="-30.8" font-family="Helvetica,sans-Serif" font-style="oblique" font-size="10.00" fill="#000000">DATETIME</text>
<polygon fill="none" stroke="#000000" points="607.8571,-4 607.8571,-24 725.8571,-24 725.8571,-4 607.8571,-4"/>
<text text-anchor="start" x="610.844" y="-10.8" font-family="Times,serif" font-size="14.00" fill="#000000">updatedAt:</text>
<text text-anchor="start" x="673.051" y="-10.8" font-family="Helvetica,sans-Serif" font-style="oblique" font-size="10.00" fill="#000000">DATETIME</text>
</g>
<!-- GroceryListItems&#45;&gt;Ingredients -->
<g id="edge2" class="edge">
<title>GroceryListItems:ingredientId&#45;&gt;Ingredients:id</title>
<path fill="none" stroke="#444444" stroke-dasharray="5,2" d="M212.8571,-357C390.8282,-357 425.1527,-257.8855 597.6528,-254.1106"/>
<polygon fill="#444444" stroke="#444444" points="607.8951,-257.4998 597.8577,-254.1085 607.8192,-250.5002 607.8951,-257.4998"/>
</g>
<!-- Users -->
<g id="node9" class="node">
<title>Users</title>
<polygon fill="#dddddd" stroke="transparent" points="1120.8571,-619 1120.8571,-639 1238.8571,-639 1238.8571,-619 1120.8571,-619"/>
<polygon fill="none" stroke="#000000" points="1120.8571,-619 1120.8571,-639 1238.8571,-639 1238.8571,-619 1120.8571,-619"/>
<text text-anchor="start" x="1163.9157" y="-624.8" font-family="Times,serif" font-size="14.00" fill="#000000">Users</text>
<polygon fill="none" stroke="#000000" points="1120.8571,-599 1120.8571,-619 1238.8571,-619 1238.8571,-599 1120.8571,-599"/>
<text text-anchor="start" x="1164.4133" y="-605.8" font-family="Times,serif" font-size="14.00" fill="#000000">id:</text>
<text text-anchor="start" x="1179.1926" y="-605.8" font-family="Helvetica,sans-Serif" font-style="oblique" font-size="10.00" fill="#000000">INT</text>
<polygon fill="none" stroke="#000000" points="1120.8571,-579 1120.8571,-599 1238.8571,-599 1238.8571,-579 1120.8571,-579"/>
<text text-anchor="start" x="1138.2844" y="-585.8" font-family="Times,serif" font-size="14.00" fill="#000000">email:</text>
<text text-anchor="start" x="1173.2707" y="-585.8" font-family="Helvetica,sans-Serif" font-style="oblique" font-size="10.00" fill="#000000">VARCHAR</text>
<polygon fill="none" stroke="#000000" points="1120.8571,-559 1120.8571,-579 1238.8571,-579 1238.8571,-559 1120.8571,-559"/>
<text text-anchor="start" x="1127.3913" y="-565.8" font-family="Times,serif" font-size="14.00" fill="#000000">password:</text>
<text text-anchor="start" x="1184.1638" y="-565.8" font-family="Helvetica,sans-Serif" font-style="oblique" font-size="10.00" fill="#000000">VARCHAR</text>
<polygon fill="none" stroke="#000000" points="1120.8571,-539 1120.8571,-559 1238.8571,-559 1238.8571,-539 1120.8571,-539"/>
<text text-anchor="start" x="1127.0119" y="-545.8" font-family="Times,serif" font-size="14.00" fill="#000000">username:</text>
<text text-anchor="start" x="1184.5432" y="-545.8" font-family="Helvetica,sans-Serif" font-style="oblique" font-size="10.00" fill="#000000">VARCHAR</text>
<polygon fill="none" stroke="#000000" points="1120.8571,-519 1120.8571,-539 1238.8571,-539 1238.8571,-519 1120.8571,-519"/>
<text text-anchor="start" x="1137.6345" y="-525.8" font-family="Times,serif" font-size="14.00" fill="#000000">userType:</text>
<text text-anchor="start" x="1192.6364" y="-525.8" font-family="Helvetica,sans-Serif" font-style="oblique" font-size="10.00" fill="#000000">ENUM</text>
<polygon fill="none" stroke="#000000" points="1120.8571,-499 1120.8571,-519 1238.8571,-519 1238.8571,-499 1120.8571,-499"/>
<text text-anchor="start" x="1125.799" y="-505.8" font-family="Times,serif" font-size="14.00" fill="#000000">createdAt:</text>
<text text-anchor="start" x="1184.0959" y="-505.8" font-family="Helvetica,sans-Serif" font-style="oblique" font-size="10.00" fill="#000000">DATETIME</text>
<polygon fill="none" stroke="#000000" points="1120.8571,-479 1120.8571,-499 1238.8571,-499 1238.8571,-479 1120.8571,-479"/>
<text text-anchor="start" x="1123.844" y="-485.8" font-family="Times,serif" font-size="14.00" fill="#000000">updatedAt:</text>
<text text-anchor="start" x="1186.051" y="-485.8" font-family="Helvetica,sans-Serif" font-style="oblique" font-size="10.00" fill="#000000">DATETIME</text>
</g>
<!-- GroceryLists&#45;&gt;Users -->
<g id="edge3" class="edge">
<title>GroceryLists:user_id&#45;&gt;Users:id</title>
<path fill="none" stroke="#444444" stroke-dasharray="5,2" d="M725.8571,-526C901.8304,-526 940.0363,-605.869 1110.7626,-608.9109"/>
<polygon fill="#444444" stroke="#444444" points="1120.8262,-612.4999 1110.8575,-608.9116 1120.8881,-605.5001 1120.8262,-612.4999"/>
</g>
<!-- MealPlans -->
<g id="node4" class="node">
<title>MealPlans</title>
<polygon fill="#dddddd" stroke="transparent" points="94.8571,-843 94.8571,-863 212.8571,-863 212.8571,-843 94.8571,-843"/>
<polygon fill="none" stroke="#000000" points="94.8571,-843 94.8571,-863 212.8571,-863 212.8571,-843 94.8571,-843"/>
<text text-anchor="start" x="124.3054" y="-848.8" font-family="Times,serif" font-size="14.00" fill="#000000">MealPlans</text>
<polygon fill="none" stroke="#000000" points="94.8571,-823 94.8571,-843 212.8571,-843 212.8571,-823 94.8571,-823"/>
<text text-anchor="start" x="138.4133" y="-829.8" font-family="Times,serif" font-size="14.00" fill="#000000">id:</text>
<text text-anchor="start" x="153.1926" y="-829.8" font-family="Helvetica,sans-Serif" font-style="oblique" font-size="10.00" fill="#000000">INT</text>
<polygon fill="none" stroke="#000000" points="94.8571,-803 94.8571,-823 212.8571,-823 212.8571,-803 94.8571,-803"/>
<text text-anchor="start" x="115.344" y="-809.8" font-family="Times,serif" font-size="14.00" fill="#000000">date:</text>
<text text-anchor="start" x="142.551" y="-809.8" font-family="Helvetica,sans-Serif" font-style="oblique" font-size="10.00" fill="#000000">DATETIME</text>
<polygon fill="none" stroke="#000000" points="94.8571,-783 94.8571,-803 212.8571,-803 212.8571,-783 94.8571,-783"/>
<text text-anchor="start" x="123.2512" y="-789.8" font-family="Times,serif" font-size="14.00" fill="#000000">user_id:</text>
<text text-anchor="start" x="168.3547" y="-789.8" font-family="Helvetica,sans-Serif" font-style="oblique" font-size="10.00" fill="#000000">INT</text>
<polygon fill="none" stroke="#000000" points="94.8571,-763 94.8571,-783 212.8571,-783 212.8571,-763 94.8571,-763"/>
<text text-anchor="start" x="117.8166" y="-769.8" font-family="Times,serif" font-size="14.00" fill="#000000">recipe_id:</text>
<text text-anchor="start" x="173.7893" y="-769.8" font-family="Helvetica,sans-Serif" font-style="oblique" font-size="10.00" fill="#000000">INT</text>
<polygon fill="none" stroke="#000000" points="94.8571,-743 94.8571,-763 212.8571,-763 212.8571,-743 94.8571,-743"/>
<text text-anchor="start" x="99.799" y="-749.8" font-family="Times,serif" font-size="14.00" fill="#000000">createdAt:</text>
<text text-anchor="start" x="158.0959" y="-749.8" font-family="Helvetica,sans-Serif" font-style="oblique" font-size="10.00" fill="#000000">DATETIME</text>
<polygon fill="none" stroke="#000000" points="94.8571,-723 94.8571,-743 212.8571,-743 212.8571,-723 94.8571,-723"/>
<text text-anchor="start" x="97.844" y="-729.8" font-family="Times,serif" font-size="14.00" fill="#000000">updatedAt:</text>
<text text-anchor="start" x="160.051" y="-729.8" font-family="Helvetica,sans-Serif" font-style="oblique" font-size="10.00" fill="#000000">DATETIME</text>
</g>
<!-- Recipes -->
<g id="node6" class="node">
<title>Recipes</title>
<polygon fill="#dddddd" stroke="transparent" points="607.8571,-762 607.8571,-782 725.8571,-782 725.8571,-762 607.8571,-762"/>
<polygon fill="none" stroke="#000000" points="607.8571,-762 607.8571,-782 725.8571,-782 725.8571,-762 607.8571,-762"/>
<text text-anchor="start" x="644.6985" y="-767.8" font-family="Times,serif" font-size="14.00" fill="#000000">Recipes</text>
<polygon fill="none" stroke="#000000" points="607.8571,-742 607.8571,-762 725.8571,-762 725.8571,-742 607.8571,-742"/>
<text text-anchor="start" x="651.4133" y="-748.8" font-family="Times,serif" font-size="14.00" fill="#000000">id:</text>
<text text-anchor="start" x="666.1926" y="-748.8" font-family="Helvetica,sans-Serif" font-style="oblique" font-size="10.00" fill="#000000">INT</text>
<polygon fill="none" stroke="#000000" points="607.8571,-722 607.8571,-742 725.8571,-742 725.8571,-722 607.8571,-722"/>
<text text-anchor="start" x="629.9465" y="-728.8" font-family="Times,serif" font-size="14.00" fill="#000000">title:</text>
<text text-anchor="start" x="655.6086" y="-728.8" font-family="Helvetica,sans-Serif" font-style="oblique" font-size="10.00" fill="#000000">VARCHAR</text>
<polygon fill="none" stroke="#000000" points="607.8571,-702 607.8571,-722 725.8571,-722 725.8571,-702 607.8571,-702"/>
<text text-anchor="start" x="631.5305" y="-708.8" font-family="Times,serif" font-size="14.00" fill="#000000">content:</text>
<text text-anchor="start" x="676.6272" y="-708.8" font-family="Helvetica,sans-Serif" font-style="oblique" font-size="10.00" fill="#000000">TEXT</text>
<polygon fill="none" stroke="#000000" points="607.8571,-682 607.8571,-702 725.8571,-702 725.8571,-682 607.8571,-682"/>
<text text-anchor="start" x="636.2512" y="-688.8" font-family="Times,serif" font-size="14.00" fill="#000000">user_id:</text>
<text text-anchor="start" x="681.3547" y="-688.8" font-family="Helvetica,sans-Serif" font-style="oblique" font-size="10.00" fill="#000000">INT</text>
<polygon fill="none" stroke="#000000" points="607.8571,-662 607.8571,-682 725.8571,-682 725.8571,-662 607.8571,-662"/>
<text text-anchor="start" x="612.799" y="-668.8" font-family="Times,serif" font-size="14.00" fill="#000000">createdAt:</text>
<text text-anchor="start" x="671.0959" y="-668.8" font-family="Helvetica,sans-Serif" font-style="oblique" font-size="10.00" fill="#000000">DATETIME</text>
<polygon fill="none" stroke="#000000" points="607.8571,-642 607.8571,-662 725.8571,-662 725.8571,-642 607.8571,-642"/>
<text text-anchor="start" x="610.844" y="-648.8" font-family="Times,serif" font-size="14.00" fill="#000000">updatedAt:</text>
<text text-anchor="start" x="673.051" y="-648.8" font-family="Helvetica,sans-Serif" font-style="oblique" font-size="10.00" fill="#000000">DATETIME</text>
</g>
<!-- MealPlans&#45;&gt;Recipes -->
<g id="edge5" class="edge">
<title>MealPlans:recipe_id&#45;&gt;Recipes:id</title>
<path fill="none" stroke="#444444" stroke-dasharray="5,2" d="M212.8571,-773C385.227,-773 430.3081,-752.8123 597.7057,-752.0237"/>
<polygon fill="#444444" stroke="#444444" points="607.8654,-755.5 597.8572,-752.0235 607.8489,-748.5 607.8654,-755.5"/>
</g>
<!-- MealPlans&#45;&gt;Users -->
<g id="edge4" class="edge">
<title>MealPlans:user_id&#45;&gt;Users:id</title>
<path fill="none" stroke="#444444" stroke-dasharray="5,2" d="M212.8571,-793C444.4144,-793 508.0856,-846.4388 733.8571,-795 916.5618,-753.3733 929.6004,-614.1559 1110.6889,-609.1392"/>
<polygon fill="#444444" stroke="#444444" points="1120.9051,-612.4997 1110.8581,-609.137 1120.8092,-605.5003 1120.9051,-612.4997"/>
</g>
<!-- RecipeIngredients -->
<g id="node5" class="node">
<title>RecipeIngredients</title>
<polygon fill="#dddddd" stroke="transparent" points="94.8571,-626 94.8571,-646 212.8571,-646 212.8571,-626 94.8571,-626"/>
<polygon fill="none" stroke="#000000" points="94.8571,-626 94.8571,-646 212.8571,-646 212.8571,-626 94.8571,-626"/>
<text text-anchor="start" x="102.9328" y="-631.8" font-family="Times,serif" font-size="14.00" fill="#000000">RecipeIngredients</text>
<polygon fill="none" stroke="#000000" points="94.8571,-606 94.8571,-626 212.8571,-626 212.8571,-606 94.8571,-606"/>
<text text-anchor="start" x="138.4133" y="-612.8" font-family="Times,serif" font-size="14.00" fill="#000000">id:</text>
<text text-anchor="start" x="153.1926" y="-612.8" font-family="Helvetica,sans-Serif" font-style="oblique" font-size="10.00" fill="#000000">INT</text>
<polygon fill="none" stroke="#000000" points="94.8571,-586 94.8571,-606 212.8571,-606 212.8571,-586 94.8571,-586"/>
<text text-anchor="start" x="120.9304" y="-592.8" font-family="Times,serif" font-size="14.00" fill="#000000">recipeId:</text>
<text text-anchor="start" x="170.6755" y="-592.8" font-family="Helvetica,sans-Serif" font-style="oblique" font-size="10.00" fill="#000000">INT</text>
<polygon fill="none" stroke="#000000" points="94.8571,-566 94.8571,-586 212.8571,-586 212.8571,-566 94.8571,-566"/>
<text text-anchor="start" x="109.6477" y="-572.8" font-family="Times,serif" font-size="14.00" fill="#000000">ingredientId:</text>
<text text-anchor="start" x="181.9582" y="-572.8" font-family="Helvetica,sans-Serif" font-style="oblique" font-size="10.00" fill="#000000">INT</text>
<polygon fill="none" stroke="#000000" points="94.8571,-546 94.8571,-566 212.8571,-566 212.8571,-546 94.8571,-546"/>
<text text-anchor="start" x="99.799" y="-552.8" font-family="Times,serif" font-size="14.00" fill="#000000">createdAt:</text>
<text text-anchor="start" x="158.0959" y="-552.8" font-family="Helvetica,sans-Serif" font-style="oblique" font-size="10.00" fill="#000000">DATETIME</text>
<polygon fill="none" stroke="#000000" points="94.8571,-526 94.8571,-546 212.8571,-546 212.8571,-526 94.8571,-526"/>
<text text-anchor="start" x="97.844" y="-532.8" font-family="Times,serif" font-size="14.00" fill="#000000">updatedAt:</text>
<text text-anchor="start" x="160.051" y="-532.8" font-family="Helvetica,sans-Serif" font-style="oblique" font-size="10.00" fill="#000000">DATETIME</text>
</g>
<!-- RecipeIngredients&#45;&gt;Ingredients -->
<g id="edge7" class="edge">
<title>RecipeIngredients:ingredientId&#45;&gt;Ingredients:id</title>
<path fill="none" stroke="#444444" stroke-dasharray="5,2" d="M212.8571,-576C435.925,-576 383.0514,-263.6743 597.7655,-254.2191"/>
<polygon fill="#444444" stroke="#444444" points="607.9331,-257.4992 597.8595,-254.2172 607.7811,-250.5008 607.9331,-257.4992"/>
</g>
<!-- RecipeIngredients&#45;&gt;Recipes -->
<g id="edge6" class="edge">
<title>RecipeIngredients:recipeId&#45;&gt;Recipes:id</title>
<path fill="none" stroke="#444444" stroke-dasharray="5,2" d="M212.8571,-596C398.1979,-596 418.4182,-746.4142 597.7927,-751.8491"/>
<polygon fill="#444444" stroke="#444444" points="607.8046,-755.4996 597.8583,-751.85 607.9097,-748.5004 607.8046,-755.4996"/>
</g>
<!-- Recipes&#45;&gt;Users -->
<g id="edge8" class="edge">
<title>Recipes:user_id&#45;&gt;Users:id</title>
<path fill="none" stroke="#444444" stroke-dasharray="5,2" d="M725.8571,-692C901.8304,-692 940.0363,-612.131 1110.7626,-609.0891"/>
<polygon fill="#444444" stroke="#444444" points="1120.8881,-612.4999 1110.8575,-609.0884 1120.8262,-605.5001 1120.8881,-612.4999"/>
</g>
<!-- SequelizeMeta -->
<g id="node7" class="node">
<title>SequelizeMeta</title>
<polygon fill="#dddddd" stroke="transparent" points="109.8571,-909 109.8571,-929 198.8571,-929 198.8571,-909 109.8571,-909"/>
<polygon fill="none" stroke="#000000" points="109.8571,-909 109.8571,-929 198.8571,-929 198.8571,-909 109.8571,-909"/>
<text text-anchor="start" x="112.7639" y="-914.8" font-family="Times,serif" font-size="14.00" fill="#000000">SequelizeMeta</text>
<polygon fill="none" stroke="#000000" points="109.8571,-889 109.8571,-909 198.8571,-909 198.8571,-889 109.8571,-889"/>
<text text-anchor="start" x="113.174" y="-895.8" font-family="Times,serif" font-size="14.00" fill="#000000">name:</text>
<text text-anchor="start" x="147.3811" y="-895.8" font-family="Helvetica,sans-Serif" font-style="oblique" font-size="10.00" fill="#000000">VARCHAR</text>
</g>
<!-- Statuses -->
<g id="node8" class="node">
<title>Statuses</title>
<polygon fill="#dddddd" stroke="transparent" points="607.8571,-430 607.8571,-450 725.8571,-450 725.8571,-430 607.8571,-430"/>
<polygon fill="none" stroke="#000000" points="607.8571,-430 607.8571,-450 725.8571,-450 725.8571,-430 607.8571,-430"/>
<text text-anchor="start" x="643.9123" y="-435.8" font-family="Times,serif" font-size="14.00" fill="#000000">Statuses</text>
<polygon fill="none" stroke="#000000" points="607.8571,-410 607.8571,-430 725.8571,-430 725.8571,-410 607.8571,-410"/>
<text text-anchor="start" x="651.4133" y="-416.8" font-family="Times,serif" font-size="14.00" fill="#000000">id:</text>
<text text-anchor="start" x="666.1926" y="-416.8" font-family="Helvetica,sans-Serif" font-style="oblique" font-size="10.00" fill="#000000">INT</text>
<polygon fill="none" stroke="#000000" points="607.8571,-390 607.8571,-410 725.8571,-410 725.8571,-390 607.8571,-390"/>
<text text-anchor="start" x="629.9465" y="-396.8" font-family="Times,serif" font-size="14.00" fill="#000000">title:</text>
<text text-anchor="start" x="655.6086" y="-396.8" font-family="Helvetica,sans-Serif" font-style="oblique" font-size="10.00" fill="#000000">VARCHAR</text>
<polygon fill="none" stroke="#000000" points="607.8571,-370 607.8571,-390 725.8571,-390 725.8571,-370 607.8571,-370"/>
<text text-anchor="start" x="621.0305" y="-376.8" font-family="Times,serif" font-size="14.00" fill="#000000">description:</text>
<text text-anchor="start" x="687.1272" y="-376.8" font-family="Helvetica,sans-Serif" font-style="oblique" font-size="10.00" fill="#000000">TEXT</text>
<polygon fill="none" stroke="#000000" points="607.8571,-350 607.8571,-370 725.8571,-370 725.8571,-350 607.8571,-350"/>
<text text-anchor="start" x="636.2512" y="-356.8" font-family="Times,serif" font-size="14.00" fill="#000000">user_id:</text>
<text text-anchor="start" x="681.3547" y="-356.8" font-family="Helvetica,sans-Serif" font-style="oblique" font-size="10.00" fill="#000000">INT</text>
<polygon fill="none" stroke="#000000" points="607.8571,-330 607.8571,-350 725.8571,-350 725.8571,-330 607.8571,-330"/>
<text text-anchor="start" x="612.799" y="-336.8" font-family="Times,serif" font-size="14.00" fill="#000000">createdAt:</text>
<text text-anchor="start" x="671.0959" y="-336.8" font-family="Helvetica,sans-Serif" font-style="oblique" font-size="10.00" fill="#000000">DATETIME</text>
<polygon fill="none" stroke="#000000" points="607.8571,-310 607.8571,-330 725.8571,-330 725.8571,-310 607.8571,-310"/>
<text text-anchor="start" x="610.844" y="-316.8" font-family="Times,serif" font-size="14.00" fill="#000000">updatedAt:</text>
<text text-anchor="start" x="673.051" y="-316.8" font-family="Helvetica,sans-Serif" font-style="oblique" font-size="10.00" fill="#000000">DATETIME</text>
</g>
<!-- Statuses&#45;&gt;Users -->
<g id="edge9" class="edge">
<title>Statuses:user_id&#45;&gt;Users:id</title>
<path fill="none" stroke="#444444" stroke-dasharray="5,2" d="M725.8571,-360C929.9375,-360 913.9346,-600.801 1110.7075,-608.7964"/>
<polygon fill="#444444" stroke="#444444" points="1120.7869,-612.4993 1110.8592,-608.7993 1120.9274,-605.5007 1120.7869,-612.4993"/>
</g>
</g>
</svg>
